<svg id="visual" viewBox="0 0 900 200" width="900" height="200" xmlns="http://www.w3.org/2000/svg" xmlns:xlink="http://www.w3.org/1999/xlink" version="1.1"><path d="M0 147L21.5 147.5C43 148 86 149 128.8 145.5C171.7 142 214.3 134 257.2 137.8C300 141.7 343 157.3 385.8 163.2C428.7 169 471.3 165 514.2 160.2C557 155.3 600 149.7 642.8 144C685.7 138.3 728.3 132.7 771.2 129.7C814 126.7 857 126.3 878.5 126.2L900 126L900 201L878.5 201C857 201 814 201 771.2 201C728.3 201 685.7 201 642.8 201C600 201 557 201 514.2 201C471.3 201 428.7 201 385.8 201C343 201 300 201 257.2 201C214.3 201 171.7 201 128.8 201C86 201 43 201 21.5 201L0 201Z" fill="#130f2e" stroke-linecap="round" stroke-linejoin="miter"></path></svg>