<svg id="visual" viewBox="0 0 900 200" width="900" height="200" xmlns="http://www.w3.org/2000/svg" xmlns:xlink="http://www.w3.org/1999/xlink" version="1.1"><rect x="0" y="0" width="900" height="200" fill="#000517"></rect><path d="M0 155L21.5 155.7C43 156.3 86 157.7 128.8 159.7C171.7 161.7 214.3 164.3 257.2 162.7C300 161 343 155 385.8 149.2C428.7 143.3 471.3 137.7 514.2 133.8C557 130 600 128 642.8 133.2C685.7 138.3 728.3 150.7 771.2 151.8C814 153 857 143 878.5 138L900 133L900 201L878.5 201C857 201 814 201 771.2 201C728.3 201 685.7 201 642.8 201C600 201 557 201 514.2 201C471.3 201 428.7 201 385.8 201C343 201 300 201 257.2 201C214.3 201 171.7 201 128.8 201C86 201 43 201 21.5 201L0 201Z" fill="#131428" stroke-linecap="round" stroke-linejoin="miter"></path></svg>